<?xml version="1.0" standalone="no"?>
<!DOCTYPE svg PUBLIC "-//W3C//DTD SVG 20010904//EN"
 "http://www.w3.org/TR/2001/REC-SVG-20010904/DTD/svg10.dtd">
<svg version="1.0" xmlns="http://www.w3.org/2000/svg"
 width="3000.000000pt" height="3000.000000pt" viewBox="0 0 3000.000000 3000.000000"
 preserveAspectRatio="xMidYMid meet">

<g transform="translate(0.000000,3000.000000) scale(0.100000,-0.100000)"
fill="#ffffff" stroke="none">
<path d="M9640 25185 l0 -535 -535 0 -535 0 -2 -537 -3 -538 -525 -2 c-289 -2
-531 -3 -537 -3 -10 0 -13 -543 -13 -2680 l0 -2680 540 0 540 0 0 -535 0 -535
1605 0 1605 0 0 -1075 0 -1075 2145 0 2145 0 0 540 0 540 535 0 535 0 0 -540
0 -540 1610 0 1610 0 0 -1600 0 -1600 -535 0 -535 0 0 -1075 0 -1075 -540 0
-540 0 0 -535 0 -535 -2140 0 -2140 0 0 -535 0 -535 533 -2 532 -3 3 -527 2
-528 -2675 0 -2675 0 0 2135 0 2135 530 0 530 0 2 -532 3 -533 538 -3 537 -2
0 535 0 535 -535 0 -535 0 -2 538 -3 537 -532 3 -533 2 0 2140 0 2140 -540 0
-540 0 0 -2145 0 -2145 535 0 535 0 0 -530 0 -530 -535 0 -535 0 0 -3760 0
-3760 3757 0 3756 0 -4 2147 -4 2148 1068 3 1067 2 0 535 0 535 540 0 540 0 0
535 0 535 533 2 532 3 3 1073 2 1072 535 0 535 0 0 6430 0 6430 -535 0 -535 0
0 535 0 535 -5360 0 -5360 0 0 -535z m10713 -5357 l2 -1598 -1605 -2 -1605 -3
-3 -543 -2 -542 -533 2 -532 3 -3 543 -2 542 -3210 0 -3210 0 0 525 0 525 535
0 535 0 0 1075 0 1075 4815 -2 4815 -3 3 -1597z m-6423 -3223 l0 -535 -535 0
-535 0 0 535 0 535 535 0 535 0 0 -535z m5360 0 l0 -535 -535 0 -535 0 0 535
0 535 535 0 535 0 0 -535z m-4292 -11782 l-3 -538 -2672 -3 -2673 -2 0 540 0
540 2675 0 2675 0 -2 -537z"/>
<path d="M15000 11250 l0 -540 1608 2 1607 3 0 535 0 535 -1607 3 -1608 2 0
-540z"/>
</g>
</svg>
